# xmcd CD database file
#
# Track frame offsets:
#	150
#	14667
#	28211
#	44585
#	58129
#	78994
#	93599
#	113757
#	126736
#	146045
#	167724
#	179960
#	194459
#
# Disc length: 2920 seconds
#
# Revision: 0
# Processed by: cddbd v1.5.2PL0 Copyright (c) Steve Scherf et al.
# Submitted via: CDex 1.51
#
DISCID=cd0b660d
DTITLE=Ralph de Jongh - Live at Crossroads
DYEAR=2006
DGENRE=Blues
TTITLE0=Wind Blow me Home
TTITLE1=Hard time killing floor
TTITLE2=worried man
TTITLE3=Wade in the Water
TTITLE4=Dust my broom
TTITLE5=Shake your moneymaker
TTITLE6=Kneel to your true self
TTITLE7=Worried live blues
TTITLE8=Give it to my self
TTITLE9=into space
TTITLE10=Ride and sing
TTITLE11=Preaching blues
TTITLE12=Life is like a Carriage
EXTD=YEAR: 2006
EXTT0=
EXTT1=
EXTT2=
EXTT3=
EXTT4=
EXTT5=
EXTT6=
EXTT7=
EXTT8=
EXTT9=
EXTT10=
EXTT11=
EXTT12=
PLAYORDER=
